<?xml version="1.0" standalone="no"?>
<!DOCTYPE svg PUBLIC "-//W3C//DTD SVG 20010904//EN"
 "http://www.w3.org/TR/2001/REC-SVG-20010904/DTD/svg10.dtd">
<svg version="1.0" xmlns="http://www.w3.org/2000/svg"
 width="700.000000pt" height="700.000000pt" viewBox="0 0 700.000000 700.000000"
 preserveAspectRatio="xMidYMid meet">
<metadata>
Created by potrace 1.14, written by Peter Selinger 2001-2017
</metadata>
<g transform="translate(0.000000,700.000000) scale(0.100000,-0.100000)"
fill="#000000" stroke="none">
<path d="M3318 6915 c-2 -1 -43 -5 -93 -9 -49 -4 -101 -8 -115 -10 -14 -2 -52
-7 -85 -11 -223 -26 -570 -120 -820 -222 -106 -43 -322 -148 -395 -191 -19
-12 -48 -29 -65 -38 -39 -21 -268 -175 -275 -183 -3 -4 -23 -20 -45 -36 -137
-99 -387 -335 -516 -485 -314 -367 -544 -788 -683 -1248 -46 -154 -100 -401
-111 -507 -4 -33 -8 -67 -10 -75 -25 -93 -24 -686 0 -805 2 -11 7 -40 10 -65
14 -107 16 -126 21 -139 3 -8 7 -30 10 -50 11 -74 67 -289 106 -405 132 -399
321 -747 586 -1078 123 -153 324 -359 462 -472 52 -43 106 -87 120 -99 90 -76
363 -248 525 -330 315 -161 702 -288 1010 -332 11 -1 42 -6 70 -10 84 -12 97
-14 200 -22 180 -13 597 -6 679 12 11 3 39 7 61 10 131 16 215 32 388 76 499
126 1000 388 1385 726 468 410 808 919 1005 1503 30 90 80 268 93 335 2 11 6
31 9 45 3 14 7 36 10 50 3 14 7 38 11 53 3 16 7 38 8 50 5 38 18 131 22 151
24 128 23 659 -1 796 -2 14 -6 45 -9 70 -30 252 -127 601 -243 875 -80 189
-250 493 -345 620 -5 6 -39 51 -76 100 -38 50 -81 106 -98 125 -170 198 -343
366 -519 503 -33 26 -65 51 -71 56 -5 4 -20 13 -31 20 -12 6 -27 17 -35 24
-25 24 -185 126 -299 189 -135 75 -236 125 -356 173 -49 20 -97 40 -108 45
-132 59 -523 159 -720 184 -113 14 -145 18 -186 22 -46 5 -477 13 -481 9z"/>
</g>
</svg>
