<?xml version="1.0" encoding="utf-8"?><svg viewBox="0 0 80 80" xmlns="http://www.w3.org/2000/svg" xmlns:xlink="http://www.w3.org/1999/xlink"><style>:root>svg{display:none}:root>svg:target{display:block}</style><svg fill="none" viewBox="0 0 13 21" id="angle" xmlns="http://www.w3.org/2000/svg"><path d="M3 21a2.001 2.001 0 0 1-1.42-3.42L8.2 11 1.84 4.38a2 2 0 1 1 2.84-2.82l7.72 8a2 2 0 0 1 0 2.8l-8 8A2.002 2.002 0 0 1 3 21Z" fill="#3671E9"/></svg><svg fill="none" viewBox="0 0 14 12" id="arrow-up" xmlns="http://www.w3.org/2000/svg"><path d="m12.71 5.29-5-5a1 1 0 0 0-.33-.21 1 1 0 0 0-.76 0 1 1 0 0 0-.33.21l-5 5a1.004 1.004 0 1 0 1.42 1.42L6 3.41V11a1 1 0 1 0 2 0V3.41l3.29 3.3a1.001 1.001 0 0 0 1.64-.326 1 1 0 0 0-.22-1.094Z" fill="#FD8589"/></svg><svg fill="none" viewBox="0 0 40 40" id="bitcoin-logo" xmlns="http://www.w3.org/2000/svg"><g clip-path="url(#ca)"><path d="M39.402 24.837C36.73 35.557 25.868 42.073 15.164 39.4 4.444 36.729-2.073 25.868.599 15.164 3.272 4.444 14.117-2.073 24.837.599c10.705 2.657 17.237 13.518 14.565 24.238Z" fill="#E0E0E0"/><path d="M29.523 17.508c.39-2.656-1.625-4.094-4.406-5.047l.906-3.61-2.187-.546-.875 3.516a58.136 58.136 0 0 0-1.766-.407l.875-3.53-2.188-.548-.89 3.594c-.485-.11-.953-.219-1.406-.328v-.016l-3.032-.75-.578 2.344s1.625.375 1.594.39c.89.22 1.047.813 1.016 1.282l-1.032 4.11c.063.015.141.03.235.077a1.294 1.294 0 0 1-.235-.062l-1.437 5.75c-.11.265-.39.672-1 .515.015.032-1.594-.39-1.594-.39l-1.094 2.515 2.86.72c.531.14 1.047.265 1.562.405l-.906 3.641 2.188.547.906-3.61c.593.157 1.187.313 1.75.454l-.89 3.593 2.187.547.906-3.64c3.75.703 6.562.422 7.734-2.97.953-2.718-.047-4.296-2.015-5.327 1.453-.328 2.53-1.281 2.812-3.219Zm-5.015 7.031c-.672 2.72-5.266 1.25-6.75.875l1.203-4.828c1.484.375 6.265 1.11 5.547 3.953Zm.687-7.078c-.625 2.485-4.438 1.219-5.672.906l1.094-4.375c1.234.313 5.219.891 4.578 3.47Z" fill="#0D0D2B"/></g><defs><clipPath id="ca"><path fill="#fff" d="M0 0h40v40H0z"/></clipPath></defs></svg><svg fill="none" viewBox="0 0 40 40" id="earth-icon" xmlns="http://www.w3.org/2000/svg"><path d="M32.374 7.636A17.5 17.5 0 1 0 7.626 32.385 17.5 17.5 0 1 0 32.374 7.636ZM5 20.011c0-1.328.176-2.65.524-3.93.573 1.233 1.406 2.3 1.972 3.566.732 1.629 2.698 1.177 3.566 2.604.77 1.266-.053 2.867.524 4.192.419.962 1.406 1.172 2.088 1.875.696.71.68 1.682.787 2.607.12 1.086.314 2.164.582 3.224 0 .008 0 .016.006.024C9.203 32.12 5 26.547 5 20.011Zm15 15c-.838 0-1.674-.07-2.5-.21.009-.212.013-.41.034-.547.19-1.242.811-2.457 1.65-3.386.83-.917 1.965-1.538 2.665-2.578.686-1.016.892-2.383.609-3.57-.416-1.753-2.798-2.338-4.083-3.29-.738-.546-1.395-1.391-2.365-1.46-.447-.031-.82.065-1.264-.05-.406-.105-.725-.323-1.158-.266-.808.106-1.318.97-2.187.853-.824-.11-1.674-1.075-1.861-1.86-.24-1.01.558-1.337 1.413-1.427.357-.037.758-.078 1.101.053.452.167.665.61 1.07.833.76.417.914-.25.798-.924-.174-1.011-.377-1.423.524-2.119.625-.48 1.16-.827 1.06-1.688-.06-.507-.337-.736-.079-1.24.197-.383.735-.73 1.086-.958.905-.59 3.878-.547 2.664-2.2-.357-.485-1.016-1.352-1.64-1.471-.782-.148-1.13.724-1.674 1.109-.562.397-1.657.849-2.22.234-.759-.827.502-1.099.78-1.677.13-.27 0-.643-.217-.996.282-.119.569-.229.86-.33.182.135.399.216.625.234.522.035 1.015-.248 1.472.108.506.39.87.884 1.543 1.006.65.118 1.338-.26 1.499-.926.098-.405 0-.832-.094-1.25 2.922.016 5.774.892 8.203 2.516-.156-.06-.343-.052-.573.055-.474.22-1.146.781-1.202 1.337-.063.631.868.72 1.31.72.664 0 1.337-.296 1.123-1.064-.093-.332-.22-.678-.423-.888.49.34.96.71 1.406 1.105l-.021.021c-.45.469-.973.84-1.28 1.41-.218.402-.462.592-.902.696-.242.057-.52.078-.722.24-.566.446-.244 1.516.292 1.838.677.405 1.682.214 2.193-.364.4-.454.634-1.24 1.352-1.24.316 0 .62.124.846.345.297.308.238.595.301.98.112.683.714.312 1.08-.032.268.475.509.965.722 1.466-.403.58-.723 1.213-1.692.537-.58-.406-.938-.994-1.667-1.177-.637-.156-1.289.006-1.918.115-.715.124-1.562.179-2.105.72-.524.522-.801 1.22-1.359 1.745-1.079 1.015-1.534 2.124-.836 3.56.672 1.38 2.078 2.13 3.594 2.031 1.49-.099 3.037-.963 2.995 1.202-.016.766.144 1.297.38 2.009.217.656.202 1.292.252 1.969.048.793.172 1.58.37 2.35A14.98 14.98 0 0 1 20 35.01Z" fill="#3671E9"/></svg><svg fill="none" viewBox="0 0 24 24" id="facebook" xmlns="http://www.w3.org/2000/svg"><path d="M15.12 5.32H17V2.14A26.113 26.113 0 0 0 14.26 2c-2.72 0-4.58 1.66-4.58 4.7v2.62H6.61v3.56h3.07V22h3.68v-9.12h3.06l.46-3.56h-3.52V7.05c0-1.05.28-1.73 1.76-1.73Z" fill="#fff"/></svg><svg fill="none" viewBox="0 0 24 24" id="instagram" xmlns="http://www.w3.org/2000/svg"><path d="M17.34 5.46a1.2 1.2 0 1 0 0 2.4 1.2 1.2 0 0 0 0-2.4Zm4.6 2.42a7.588 7.588 0 0 0-.46-2.43 4.94 4.94 0 0 0-1.16-1.77 4.7 4.7 0 0 0-1.77-1.15 7.3 7.3 0 0 0-2.43-.47C15.06 2 14.72 2 12 2s-3.06 0-4.12.06a7.3 7.3 0 0 0-2.43.47 4.78 4.78 0 0 0-1.77 1.15 4.7 4.7 0 0 0-1.15 1.77 7.3 7.3 0 0 0-.47 2.43C2 8.94 2 9.28 2 12s0 3.06.06 4.12a7.3 7.3 0 0 0 .47 2.43 4.7 4.7 0 0 0 1.15 1.77 4.78 4.78 0 0 0 1.77 1.15 7.3 7.3 0 0 0 2.43.47C8.94 22 9.28 22 12 22s3.06 0 4.12-.06a7.3 7.3 0 0 0 2.43-.47 4.7 4.7 0 0 0 1.77-1.15 4.85 4.85 0 0 0 1.16-1.77c.285-.78.44-1.6.46-2.43 0-1.06.06-1.4.06-4.12s0-3.06-.06-4.12ZM20.14 16a5.61 5.61 0 0 1-.34 1.86 3.06 3.06 0 0 1-.75 1.15c-.324.33-.717.586-1.15.75a5.61 5.61 0 0 1-1.86.34c-1 .05-1.37.06-4 .06s-3 0-4-.06a5.73 5.73 0 0 1-1.94-.3 3.27 3.27 0 0 1-1.1-.75 3 3 0 0 1-.74-1.15 5.54 5.54 0 0 1-.4-1.9c0-1-.06-1.37-.06-4s0-3 .06-4a5.54 5.54 0 0 1 .35-1.9A3 3 0 0 1 5 5a3.14 3.14 0 0 1 1.1-.8A5.73 5.73 0 0 1 8 3.86c1 0 1.37-.06 4-.06s3 0 4 .06a5.61 5.61 0 0 1 1.86.34 3.06 3.06 0 0 1 1.19.8c.328.307.584.683.75 1.1.222.609.337 1.252.34 1.9.05 1 .06 1.37.06 4s-.01 3-.06 4ZM12 6.87A5.13 5.13 0 1 0 17.14 12 5.12 5.12 0 0 0 12 6.87Zm0 8.46a3.33 3.33 0 1 1 0-6.66 3.33 3.33 0 0 1 0 6.66Z" fill="#fff"/></svg><svg fill="none" viewBox="0 0 24 24" id="linkedin" xmlns="http://www.w3.org/2000/svg"><path d="M20.47 2H3.53a1.45 1.45 0 0 0-1.47 1.43v17.14A1.45 1.45 0 0 0 3.53 22h16.94a1.451 1.451 0 0 0 1.47-1.43V3.43A1.45 1.45 0 0 0 20.47 2ZM8.09 18.74h-3v-9h3v9ZM6.59 8.48a1.56 1.56 0 0 1 0-3.12 1.57 1.57 0 1 1 0 3.12Zm12.32 10.26h-3v-4.83c0-1.21-.43-2-1.52-2A1.65 1.65 0 0 0 12.85 13a1.998 1.998 0 0 0-.1.73v5h-3v-9h3V11a3 3 0 0 1 2.71-1.5c2 0 3.45 1.29 3.45 4.06v5.18Z" fill="#fff"/></svg><svg fill="none" viewBox="0 0 80 80" id="logo-bitcoin" xmlns="http://www.w3.org/2000/svg"><g clip-path="url(#ha)"><path d="M78.803 49.673c-5.344 21.44-27.066 34.473-48.475 29.129C8.887 73.457-4.146 51.736 1.198 30.327 6.544 8.887 28.234-4.146 49.675 1.199c21.41 5.313 34.474 27.034 29.13 48.474Z" fill="url(#hb)"/><path d="M59.045 35.016c.781-5.313-3.25-8.188-8.813-10.094l1.813-7.219-4.375-1.093-1.75 7.03a117.025 117.025 0 0 0-3.531-.812l1.75-7.062-4.375-1.094-1.782 7.188c-.968-.22-1.906-.438-2.812-.657v-.03l-6.063-1.5-1.156 4.687s3.25.75 3.188.78c1.78.438 2.093 1.626 2.03 2.563l-2.062 8.22c.125.03.282.062.47.155a2.599 2.599 0 0 1-.47-.125l-2.875 11.5c-.218.532-.78 1.344-2 1.032.032.062-3.187-.782-3.187-.782l-2.188 5.032 5.72 1.437c1.062.281 2.093.531 3.124.813l-1.812 7.28 4.375 1.095 1.812-7.22c1.188.313 2.375.626 3.5.907l-1.781 7.188 4.375 1.093 1.812-7.28c7.5 1.405 13.125.843 15.47-5.938 1.905-5.438-.095-8.594-4.032-10.657 2.906-.656 5.062-2.562 5.625-6.437ZM49.014 49.078c-1.344 5.438-10.532 2.5-13.5 1.75l2.406-9.656c2.969.75 12.531 2.219 11.094 7.906Zm1.375-14.156c-1.25 4.969-8.875 2.438-11.344 1.813l2.187-8.75c2.47.625 10.438 1.78 9.157 6.937Z" fill="#fff"/></g><defs><linearGradient id="hb" x1="39.978" y1="-.019" x2="39.978" y2="79.992" gradientUnits="userSpaceOnUse"><stop stop-color="#F9AA4B"/><stop offset="1" stop-color="#F7931A"/></linearGradient><clipPath id="ha"><path fill="#fff" d="M0 0h80v80H0z"/></clipPath></defs></svg><svg fill="none" viewBox="0 0 80 80" id="logo-ethereum" xmlns="http://www.w3.org/2000/svg"><circle cx="40" cy="40" r="40" fill="#1181E8"/><g clip-path="url(#ia)"><path d="m39.89 51.938-14.735-8.695 14.726 20.758 14.742-20.758-14.742 8.695h.009ZM40.109 16 25.38 40.446l14.729 8.71 14.734-8.701L40.11 16Z" fill="#fff"/></g><defs><clipPath id="ia"><path fill="#fff" transform="translate(16 16)" d="M0 0h48v48H0z"/></clipPath></defs></svg><svg fill="none" viewBox="0 0 80 80" id="logo-litecoin" xmlns="http://www.w3.org/2000/svg"><g clip-path="url(#ja)"><circle cx="40" cy="40" r="40" fill="#fff"/><path d="M40 0a40 40 0 1 0 0 80 40 40 0 0 0 0-80Zm-.873 12.26h8.613a1.144 1.144 0 0 1 1.1 1.45l-6.767 23.06 6.35-1.94-1.36 4.617-6.413 1.866-4.16 14.047h22.253a1.143 1.143 0 0 1 1.094 1.457l-1.94 6.666a1.53 1.53 0 0 1-1.467 1.1H22.443l5.744-19.406-6.354 1.933 1.4-4.537L29.6 40.64l8.073-27.267a1.52 1.52 0 0 1 1.457-1.113h-.003Z" fill="#59C19C"/></g><defs><clipPath id="ja"><path fill="#fff" d="M0 0h80v80H0z"/></clipPath></defs></svg><svg fill="none" viewBox="0 0 48 38" id="mastercard-logo" xmlns="http://www.w3.org/2000/svg"><path d="M17.494 7.228h12.965v23.726H17.494V7.228Z" fill="#BDBDBD"/><path d="M18.317 19.091c0-4.82 2.222-9.097 5.639-11.863C21.445 5.216 18.276 4 14.818 4 6.627 4 0 10.749 0 19.091c0 8.342 6.627 15.09 14.818 15.09 3.457 0 6.627-1.215 9.138-3.227-3.417-2.725-5.64-7.042-5.64-11.863Z" fill="#828282"/><path d="M47.952 19.091c0 8.342-6.626 15.09-14.817 15.09-3.458 0-6.627-1.215-9.138-3.227 3.457-2.767 5.639-7.042 5.639-11.863 0-4.82-2.223-9.097-5.64-11.863C26.509 5.216 29.678 4 33.136 4c8.19 0 14.818 6.79 14.818 15.091Z" fill="#E0E0E0"/></svg><svg fill="none" viewBox="0 0 40 40" id="person-icon" xmlns="http://www.w3.org/2000/svg"><path d="M25.988 5.045C24.468 3.404 22.343 2.5 20 2.5c-2.356 0-4.487.898-6 2.53-1.53 1.649-2.275 3.89-2.1 6.31.347 4.776 3.98 8.66 8.1 8.66 4.12 0 7.747-3.884 8.1-8.658.177-2.398-.573-4.635-2.113-6.297ZM33.75 37.5H6.25a2.42 2.42 0 0 1-1.89-.87c-.509-.607-.713-1.436-.562-2.274.66-3.658 2.718-6.73 5.952-8.887C12.623 23.554 16.263 22.5 20 22.5s7.377 1.055 10.25 2.969c3.234 2.156 5.292 5.229 5.952 8.886.151.839-.054 1.668-.561 2.275a2.422 2.422 0 0 1-1.891.87Z" fill="#3671E9"/></svg><svg fill="none" viewBox="0 0 32 32" id="statistics-icon" xmlns="http://www.w3.org/2000/svg"><path d="M30 31H3a2 2 0 0 1-2-2V2a1 1 0 0 1 2 0v27h27a1 1 0 0 1 0 2Z" fill="#3671E9"/><path d="M9.75 27h-2.5A2.25 2.25 0 0 1 5 24.75v-9.5A2.25 2.25 0 0 1 7.25 13h2.5A2.25 2.25 0 0 1 12 15.25v9.5A2.25 2.25 0 0 1 9.75 27ZM18.75 27h-2.5A2.25 2.25 0 0 1 14 24.75v-12.5A2.25 2.25 0 0 1 16.25 10h2.5A2.25 2.25 0 0 1 21 12.25v12.5A2.25 2.25 0 0 1 18.75 27ZM27.727 27h-2.5a2.25 2.25 0 0 1-2.25-2.25V8.25A2.25 2.25 0 0 1 25.227 6h2.5a2.25 2.25 0 0 1 2.25 2.25v16.5a2.25 2.25 0 0 1-2.25 2.25Z" fill="#3671E9"/></svg><svg fill="none" viewBox="0 0 8 6" id="triangle" xmlns="http://www.w3.org/2000/svg"><path d="M7.388 4.73 4.18 1.01a.244.244 0 0 0-.362 0L.612 4.73c-.119.138-.011.34.181.34h6.414c.192 0 .3-.202.18-.34Z" fill="#8FFFBE"/></svg><svg fill="none" viewBox="0 0 24 24" id="twitter" xmlns="http://www.w3.org/2000/svg"><path d="M22 5.8a8.49 8.49 0 0 1-2.36.64 4.13 4.13 0 0 0 1.81-2.27 8.21 8.21 0 0 1-2.61 1 4.1 4.1 0 0 0-7 3.74 11.64 11.64 0 0 1-8.45-4.29 4.16 4.16 0 0 0-.55 2.07 4.09 4.09 0 0 0 1.82 3.41 4.05 4.05 0 0 1-1.86-.51v.05a4.1 4.1 0 0 0 3.3 4 3.933 3.933 0 0 1-1.1.17 4.907 4.907 0 0 1-.77-.07 4.11 4.11 0 0 0 3.83 2.84A8.22 8.22 0 0 1 2 18.28a11.57 11.57 0 0 0 6.29 1.85A11.589 11.589 0 0 0 20 8.45v-.53a8.43 8.43 0 0 0 2-2.12Z" fill="#fff"/></svg><svg fill="none" viewBox="0 0 48 48" id="visa-logo" xmlns="http://www.w3.org/2000/svg"><g clip-path="url(#pa)"><path d="M34.893 16.655A9.253 9.253 0 0 0 31.411 16c-3.84 0-6.55 2.104-6.57 5.124-.024 2.218 1.927 3.468 3.403 4.21 1.514.762 2.02 1.242 2.015 1.923-.01 1.037-1.209 1.506-2.325 1.506-1.533 0-2.37-.232-3.66-.814l-.477-.243-.544 3.477c.933.423 2.615.785 4.352.817 4.082 0 6.75-2.09 6.782-5.304.033-1.772-1.023-3.111-3.245-4.218-1.35-.718-2.188-1.198-2.188-1.926 0-.645.718-1.334 2.217-1.334a6.584 6.584 0 0 1 2.911.598l.36.175.545-3.36-.094.024Zm9.963-.373h-3c-.933 0-1.636.28-2.044 1.287l-5.768 14.214h4.081l.816-2.33 4.982.005c.117.545.477 2.325.477 2.325H48l-3.144-15.501Zm-25.537-.13h3.89L20.776 31.66h-3.885l2.428-15.514v.005Zm-9.874 8.547.403 2.154 3.801-10.571h4.12l-6.121 15.48h-4.11l-3.36-13.108a.882.882 0 0 0-.358-.519A15.848 15.848 0 0 0 0 16.598l.053-.326h6.26c.85.036 1.534.326 1.762 1.312l1.368 7.123V24.7h.002Zm30.612 1.582 1.55-4.338c-.019.047.32-.895.516-1.477l.267 1.339.9 4.474h-3.235v.002h.002Z" fill="#E0E0E0"/></g><defs><clipPath id="pa"><path fill="#fff" d="M0 0h48v48H0z"/></clipPath></defs></svg><svg fill="none" viewBox="0 0 24 24" id="youtube" xmlns="http://www.w3.org/2000/svg"><path d="M23 9.71a8.5 8.5 0 0 0-.91-4.13 2.92 2.92 0 0 0-1.72-1A78.363 78.363 0 0 0 12 4.27a78.45 78.45 0 0 0-8.34.3 2.87 2.87 0 0 0-1.46.74c-.9.83-1 2.25-1.1 3.45a48.289 48.289 0 0 0 0 6.48 9.55 9.55 0 0 0 .3 2c.12.505.365.972.71 1.36a2.86 2.86 0 0 0 1.49.78c2.156.266 4.328.376 6.5.33 3.5.05 6.57 0 10.2-.28a2.88 2.88 0 0 0 1.53-.78c.28-.28.49-.623.61-1a10.58 10.58 0 0 0 .52-3.4c.04-.56.04-3.94.04-4.54ZM9.74 14.85V8.66l5.92 3.11c-1.66.92-3.85 1.96-5.92 3.08Z" fill="#fff"/></svg></svg>