<svg width="14" height="12" viewBox="0 0 14 12" fill="none" xmlns="http://www.w3.org/2000/svg">
<path d="M12.7103 5.28984L7.71032 0.289835C7.61521 0.198795 7.50307 0.12743 7.38032 0.0798353C7.13685 -0.0201827 6.86378 -0.0201827 6.62032 0.0798353C6.49756 0.12743 6.38542 0.198795 6.29032 0.289835L1.29032 5.28984C1.19708 5.38307 1.12312 5.49376 1.07266 5.61559C1.0222 5.73741 0.996223 5.86798 0.996223 5.99984C0.996223 6.26614 1.10201 6.52153 1.29032 6.70984C1.47862 6.89814 1.73401 7.00393 2.00032 7.00393C2.26662 7.00393 2.52201 6.89814 2.71032 6.70984L6.00032 3.40984V10.9998C6.00032 11.2651 6.10567 11.5194 6.29321 11.7069C6.48074 11.8945 6.7351 11.9998 7.00032 11.9998C7.26553 11.9998 7.51989 11.8945 7.70742 11.7069C7.89496 11.5194 8.00032 11.2651 8.00032 10.9998V3.40984L11.2903 6.70984C11.3833 6.80356 11.4939 6.87796 11.6157 6.92873C11.7376 6.9795 11.8683 7.00563 12.0003 7.00563C12.1323 7.00563 12.263 6.9795 12.3849 6.92873C12.5068 6.87796 12.6174 6.80356 12.7103 6.70984C12.804 6.61687 12.8784 6.50627 12.9292 6.38441C12.98 6.26255 13.0061 6.13185 13.0061 5.99984C13.0061 5.86782 12.98 5.73712 12.9292 5.61526C12.8784 5.4934 12.804 5.3828 12.7103 5.28984Z" fill="#FD8589"/>
</svg>
