<?xml version="1.0" encoding="utf-8"?>
<!-- Generator: Adobe Illustrator 25.0.0, SVG Export Plug-In . SVG Version: 6.00 Build 0)  -->
<svg version="1.1" xmlns="http://www.w3.org/2000/svg" xmlns:xlink="http://www.w3.org/1999/xlink" x="0px" y="0px"
	 viewBox="0 0 512 512" style="enable-background:new 0 0 512 512;" xml:space="preserve">
<style type="text/css">
	.st0{fill:#0D0D2B;}
	.st1{fill:#FFFFFF;fill-opacity:0.1;}
	.st2{fill:#FFFFFF;}
</style>
<g id="Слой_3">
	<circle class="st0" cx="256" cy="256" r="250"/>
</g>
<g id="Слой_1">
	<path class="st1" d="M256,506c138.1,0,250-111.9,250-250S394.1,6,256,6C117.9,6,6,117.9,6,256S117.9,506,256,506z"/>
	<path class="st2" d="M244.3,337.4c-39.7-5.8-70.2-40.1-70.2-81.5s30.5-75.6,70.2-81.5v-42.9C181,137.6,131.6,191,131.6,255.9
		c0,64.9,49.5,118.3,112.7,124.3V337.4z"/>
	<path class="st2" d="M326.8,175.1l-1.1,3.8v108.9l1.1,1.1l50.5-29.9L326.8,175.1z"/>
	<path class="st2" d="M326.8,175.1L276.2,259l50.5,29.9V236V175.1z"/>
	<path class="st2" d="M326.8,305.3l-0.6,0.8v38.8l0.6,1.8l50.6-71.2L326.8,305.3z"/>
	<path class="st2" d="M326.8,346.6v-41.4l-50.5-29.9L326.8,346.6z"/>
	<path class="st2" d="M326.8,288.8l50.5-29.9l-50.5-23V288.8z"/>
	<path class="st2" d="M276.2,259l50.5,29.9V236L276.2,259z"/>
</g>
<g id="Слой_2">
</g>
</svg>
