<svg width="134" height="40" viewBox="0 0 134 40" fill="none" xmlns="http://www.w3.org/2000/svg">
<path d="M19.9999 40C31.0456 40 39.9999 31.0457 39.9999 20C39.9999 8.95431 31.0456 0 19.9999 0C8.95424 0 -6.10352e-05 8.95431 -6.10352e-05 20C-6.10352e-05 31.0457 8.95424 40 19.9999 40Z" fill="white" fill-opacity="0.1"/>
<path d="M18.8424 28.0463C14.9124 27.4707 11.8964 24.0828 11.8964 19.9891C11.8964 15.8954 14.9124 12.5075 18.8424 11.9322V7.69238C12.5855 8.29084 7.69232 13.5677 7.69232 19.9891C7.69232 26.4104 12.5855 31.687 18.8424 32.2858V28.0463Z" fill="white"/>
<path d="M26.9983 12L26.8892 12.3711V23.1393L26.9983 23.2483L31.9968 20.2937L26.9983 12Z" fill="white"/>
<path d="M26.9984 12L21.9999 20.2937L26.9984 23.2483V18.0217V12Z" fill="white"/>
<path d="M26.9986 24.8742L26.9371 24.9492V28.7851L26.9986 28.9648L32.0001 21.9211L26.9986 24.8742Z" fill="white"/>
<path d="M26.9984 28.9648V24.8742L21.9999 21.9211L26.9984 28.9648Z" fill="white"/>
<path d="M26.9984 23.2482L31.9968 20.2937L26.9984 18.0217V23.2482Z" fill="white"/>
<path d="M21.9999 20.2937L26.9983 23.2482V18.0217L21.9999 20.2937Z" fill="white"/>
<path d="M68.4964 18.326H66.1058C66.0376 17.9339 65.9119 17.5866 65.7287 17.2841C65.5455 16.9773 65.3175 16.7173 65.0447 16.5043C64.772 16.2912 64.4609 16.1314 64.1115 16.0249C63.7663 15.9141 63.3935 15.8587 62.9929 15.8587C62.2813 15.8587 61.6506 16.0376 61.1009 16.3956C60.5511 16.7493 60.1207 17.2692 59.8097 17.9553C59.4986 18.6371 59.343 19.4702 59.343 20.4545C59.343 21.456 59.4986 22.2997 59.8097 22.9858C60.125 23.6676 60.5554 24.1832 61.1009 24.5327C61.6506 24.8778 62.2791 25.0504 62.9865 25.0504C63.3786 25.0504 63.745 24.9993 64.0859 24.897C64.4311 24.7905 64.7401 24.6349 65.0128 24.4304C65.2898 24.2259 65.522 23.9744 65.7095 23.6761C65.9013 23.3778 66.0334 23.0369 66.1058 22.6534L68.4964 22.6662C68.407 23.2884 68.2131 23.8722 67.9148 24.4176C67.6207 24.9631 67.2351 25.4446 66.7578 25.8622C66.2805 26.2756 65.7223 26.5994 65.0831 26.8338C64.4439 27.0639 63.7344 27.179 62.9545 27.179C61.804 27.179 60.777 26.9126 59.8736 26.38C58.9702 25.8473 58.2585 25.0781 57.7386 24.0724C57.2188 23.0668 56.9588 21.8608 56.9588 20.4545C56.9588 19.044 57.2209 17.8381 57.745 16.8366C58.2692 15.831 58.983 15.0618 59.8864 14.5291C60.7898 13.9964 61.8125 13.7301 62.9545 13.7301C63.6832 13.7301 64.3608 13.8324 64.9872 14.0369C65.6136 14.2415 66.1719 14.5419 66.6619 14.9382C67.152 15.3303 67.5547 15.8118 67.87 16.3828C68.1896 16.9496 68.3984 17.5973 68.4964 18.326ZM71.3881 27V13.9091H76.2972C77.3029 13.9091 78.1467 14.0838 78.8285 14.4332C79.5146 14.7827 80.0323 15.2727 80.3818 15.9034C80.7354 16.5298 80.9123 17.2607 80.9123 18.0959C80.9123 18.9354 80.7333 19.6641 80.3754 20.282C80.0217 20.8956 79.4997 21.3707 78.8093 21.7074C78.119 22.0398 77.271 22.206 76.2653 22.206H72.7688V20.2372H75.9457C76.5337 20.2372 77.0153 20.1562 77.3903 19.9943C77.7653 19.8281 78.0423 19.5874 78.2212 19.272C78.4045 18.9524 78.4961 18.5604 78.4961 18.0959C78.4961 17.6314 78.4045 17.2351 78.2212 16.907C78.038 16.5746 77.7589 16.3232 77.3839 16.1527C77.0089 15.978 76.5252 15.8906 75.9329 15.8906H73.7596V27H71.3881ZM78.1509 21.0682L81.3917 27H78.7454L75.5622 21.0682H78.1509ZM82.4105 13.9091H85.0888L88.2912 19.7003H88.419L91.6215 13.9091H94.2997L89.5377 22.1165V27H87.1726V22.1165L82.4105 13.9091ZM96.6992 27V13.9091H101.608C102.614 13.9091 103.458 14.0966 104.14 14.4716C104.826 14.8466 105.343 15.3622 105.693 16.0185C106.047 16.6705 106.223 17.4119 106.223 18.2429C106.223 19.0824 106.047 19.8281 105.693 20.4801C105.339 21.1321 104.817 21.6456 104.127 22.0206C103.436 22.3913 102.586 22.5767 101.576 22.5767H98.3228V20.6271H101.257C101.845 20.6271 102.326 20.5249 102.701 20.3203C103.076 20.1158 103.353 19.8345 103.532 19.4766C103.716 19.1186 103.807 18.7074 103.807 18.2429C103.807 17.7784 103.716 17.3693 103.532 17.0156C103.353 16.6619 103.074 16.3871 102.695 16.1911C102.32 15.9908 101.836 15.8906 101.244 15.8906H99.0707V27H96.6992ZM108.428 15.897V13.9091H118.873V15.897H114.826V27H112.474V15.897H108.428ZM132.723 20.4545C132.723 21.8651 132.459 23.0732 131.931 24.0788C131.407 25.0803 130.691 25.8473 129.783 26.38C128.88 26.9126 127.855 27.179 126.708 27.179C125.562 27.179 124.535 26.9126 123.628 26.38C122.724 25.843 122.008 25.0739 121.48 24.0724C120.956 23.0668 120.694 21.8608 120.694 20.4545C120.694 19.044 120.956 17.8381 121.48 16.8366C122.008 15.831 122.724 15.0618 123.628 14.5291C124.535 13.9964 125.562 13.7301 126.708 13.7301C127.855 13.7301 128.88 13.9964 129.783 14.5291C130.691 15.0618 131.407 15.831 131.931 16.8366C132.459 17.8381 132.723 19.044 132.723 20.4545ZM130.339 20.4545C130.339 19.4616 130.184 18.6243 129.873 17.9425C129.566 17.2564 129.14 16.7386 128.594 16.3892C128.049 16.0355 127.42 15.8587 126.708 15.8587C125.997 15.8587 125.368 16.0355 124.823 16.3892C124.277 16.7386 123.849 17.2564 123.538 17.9425C123.231 18.6243 123.078 19.4616 123.078 20.4545C123.078 21.4474 123.231 22.2869 123.538 22.973C123.849 23.6548 124.277 24.1726 124.823 24.5263C125.368 24.8757 125.997 25.0504 126.708 25.0504C127.42 25.0504 128.049 24.8757 128.594 24.5263C129.14 24.1726 129.566 23.6548 129.873 22.973C130.184 22.2869 130.339 21.4474 130.339 20.4545Z" fill="white"/>
</svg>
