<svg width="250" height="745" viewBox="0 0 250 745" fill="none" xmlns="http://www.w3.org/2000/svg">
<path d="M290.167 112.583C307.406 142.442 312.077 177.926 303.154 211.23C294.23 244.533 272.442 272.928 242.583 290.167C212.724 307.406 177.24 312.077 143.937 303.154C110.634 294.23 82.2391 272.442 65 242.583L177.583 177.583L290.167 112.583Z" fill="url(#paint0_linear_135_6)"/>
<path d="M336 625C336 656.826 323.357 687.348 300.853 709.853C278.348 732.357 247.826 745 216 745C184.174 745 153.652 732.357 131.147 709.853C108.643 687.348 96 656.826 96 625L144 625C144 644.096 151.586 662.409 165.088 675.912C178.591 689.414 196.904 697 216 697C235.096 697 253.409 689.414 266.912 675.912C280.414 662.409 288 644.096 288 625H336Z" fill="url(#paint1_linear_135_6)"/>
<defs>
<linearGradient id="paint0_linear_135_6" x1="85.2837" y1="259.05" x2="253.417" y2="259.05" gradientUnits="userSpaceOnUse">
<stop stop-color="white" stop-opacity="0.08"/>
<stop offset="1" stop-color="#35068C" stop-opacity="0.01"/>
</linearGradient>
<linearGradient id="paint1_linear_135_6" x1="104.615" y1="647.526" x2="239.022" y2="725.126" gradientUnits="userSpaceOnUse">
<stop offset="0.0625" stop-color="white" stop-opacity="0.08"/>
<stop offset="1" stop-color="white" stop-opacity="0"/>
</linearGradient>
</defs>
</svg>
