<svg width="1440" height="812" viewBox="0 0 1440 812" fill="none" xmlns="http://www.w3.org/2000/svg">
<rect x="461.326" y="364.799" width="120" height="997.881" transform="rotate(60 461.326 364.799)" fill="url(#paint0_linear_136_8)"/>
<path d="M1480.17 112.583C1497.41 142.442 1502.08 177.926 1493.15 211.23C1484.23 244.533 1462.44 272.928 1432.58 290.167C1402.72 307.406 1367.24 312.077 1333.94 303.154C1300.63 294.23 1272.24 272.442 1255 242.583L1367.58 177.583L1480.17 112.583Z" fill="url(#paint1_linear_136_8)"/>
<path d="M1526 625C1526 656.826 1513.36 687.348 1490.85 709.853C1468.35 732.357 1437.83 745 1406 745C1374.17 745 1343.65 732.357 1321.15 709.853C1298.64 687.348 1286 656.826 1286 625L1334 625C1334 644.096 1341.59 662.409 1355.09 675.912C1368.59 689.414 1386.9 697 1406 697C1425.1 697 1443.41 689.414 1456.91 675.912C1470.41 662.409 1478 644.096 1478 625H1526Z" fill="url(#paint2_linear_136_8)"/>
<defs>
<linearGradient id="paint0_linear_136_8" x1="521.326" y1="711.558" x2="521.326" y2="1362.68" gradientUnits="userSpaceOnUse">
<stop stop-color="white" stop-opacity="0"/>
<stop offset="1" stop-color="white" stop-opacity="0.1"/>
</linearGradient>
<linearGradient id="paint1_linear_136_8" x1="1275.28" y1="259.05" x2="1443.42" y2="259.05" gradientUnits="userSpaceOnUse">
<stop stop-color="white" stop-opacity="0.08"/>
<stop offset="1" stop-color="#35068C" stop-opacity="0.01"/>
</linearGradient>
<linearGradient id="paint2_linear_136_8" x1="1294.61" y1="647.526" x2="1429.02" y2="725.126" gradientUnits="userSpaceOnUse">
<stop offset="0.0625" stop-color="white" stop-opacity="0.08"/>
<stop offset="1" stop-color="white" stop-opacity="0"/>
</linearGradient>
</defs>
</svg>
